<svg width="52" height="52" viewBox="0 0 52 52" fill="none" xmlns="http://www.w3.org/2000/svg">
<circle cx="26" cy="26" r="25" stroke="#959595" stroke-width="2"/>
<g clip-path="url(#clip0_1716_541)">
<path d="M23.6966 25.2196C24.2362 24.9482 24.6441 24.646 24.9236 24.3193C25.4209 23.731 25.6663 22.9509 25.6663 21.984C25.6663 21.043 25.4209 20.2386 24.9301 19.5642C24.111 18.4656 22.7248 17.9033 20.7649 17.874H13V33.7239H20.24C21.0558 33.7239 21.8115 33.6541 22.5103 33.5111C23.2091 33.3664 23.8136 33.1015 24.3256 32.7147C24.7806 32.3783 25.1609 31.9607 25.4631 31.4683C25.9409 30.724 26.1798 29.8805 26.1798 28.9412C26.1798 28.0311 25.9702 27.2559 25.5542 26.6189C25.1332 25.9818 24.5157 25.5154 23.6966 25.2196ZM16.2031 20.627H19.7004C20.4691 20.627 21.1029 20.7099 21.6002 20.874C22.1755 21.1129 22.4632 21.5988 22.4632 22.3399C22.4632 23.0046 22.2438 23.4694 21.8098 23.731C21.3727 23.9927 20.8055 24.1243 20.11 24.1243H16.2031V20.627ZM21.7335 30.6947C21.3467 30.8816 20.8023 30.9742 20.1051 30.9742H16.2031V26.7473H20.1587C20.8478 26.7521 21.3841 26.8431 21.7676 27.0138C22.4501 27.3225 22.7898 27.8881 22.7898 28.7153C22.7898 29.6904 22.4388 30.3469 21.7335 30.6947Z" fill="#959595"/>
<path d="M36.5009 18.6133H29.6152V20.5862H36.5009V18.6133Z" fill="#959595"/>
<path d="M38.8937 26.3998C38.7507 25.4816 38.4354 24.6739 37.9446 23.9767C37.4067 23.1869 36.7241 22.6083 35.8937 22.2427C35.0665 21.8754 34.1353 21.6917 33.0985 21.6934C31.358 21.6934 29.9441 22.2378 28.8504 23.3185C27.7599 24.4025 27.2139 25.961 27.2139 27.9924C27.2139 30.1587 27.8168 31.7237 29.0291 32.6841C30.2366 33.6462 31.631 34.1256 33.2139 34.1256C35.1299 34.1256 36.6201 33.5552 37.6846 32.4176C38.3655 31.6993 38.7507 30.9924 38.8352 30.2985H35.6629C35.4793 30.6414 35.2664 30.9095 35.0226 31.1045C34.5806 31.462 34.0053 31.6408 33.3 31.6408C32.6288 31.6408 32.06 31.4929 31.5855 31.1988C30.8022 30.7275 30.3926 29.9019 30.3406 28.7269H38.9977C39.0107 27.7145 38.9782 26.9361 38.8937 26.3998ZM30.4186 26.7037C30.5324 25.9415 30.8087 25.3369 31.2474 24.89C31.6862 24.4447 32.307 24.2205 33.1017 24.2188C33.8347 24.2188 34.4473 24.4285 34.9463 24.8494C35.4387 25.2735 35.7166 25.8895 35.7734 26.7037H30.4186Z" fill="#959595"/>
</g>
<defs>
<clipPath id="clip0_1716_541">
<rect width="26" height="26" fill="white" transform="translate(13 13)"/>
</clipPath>
</defs>
</svg>
