<svg width="280" height="280" viewBox="0 0 280 280" fill="none" xmlns="http://www.w3.org/2000/svg">
<g filter="url(#filter0_d_1716_76)">
<circle cx="140" cy="140" r="100" fill="#5700EF"/>
</g>
<path d="M168.785 117.857H111.214L140 141.568L169.111 117.924C169.004 117.893 168.895 117.871 168.785 117.857Z" fill="white"/>
<path d="M141.397 146.147C140.581 146.815 139.408 146.815 138.592 146.147L109 121.768V162.143C109.833 162.143 109.991 162.143 111.214 162.143H168.786C170.009 162.143 169.176 162.143 171 162.143V122.095L141.397 146.147Z" fill="white"/>
<path d="M190.723 199.159L191.706 198.383L198.296 206.734L194.553 209.688C192.824 211.052 190.807 211.029 189.713 209.644C188.759 208.435 188.968 206.849 190.176 205.627L185.097 203.599L186.222 202.711L190.997 204.671L193.508 202.689L190.723 199.159ZM196.621 206.633L194.2 203.565L191.44 205.743C190.279 206.659 189.958 207.932 190.668 208.832C191.378 209.733 192.7 209.727 193.861 208.811L196.621 206.633Z" fill="white"/>
<path d="M174.184 210.072L180.682 206.483L185.824 215.795L179.458 219.311L178.918 218.333L184.215 215.409L182.53 212.357L177.762 214.99L177.236 214.039L182.005 211.406L180.152 208.051L174.723 211.049L174.184 210.072Z" fill="white"/>
<path d="M169.639 212.093L170.903 211.639L170.608 223.048L169.188 223.558L161.729 214.935L162.979 214.486L164.75 216.559L169.578 214.824L169.639 212.093ZM169.494 222.134L169.615 215.998L165.482 217.482L169.466 222.144L169.494 222.134Z" fill="white"/>
<path d="M152.543 216.472C155.951 215.904 158.474 217.731 159.045 221.154C159.619 224.592 157.96 227.118 154.745 227.654C152.468 228.034 150.459 226.901 149.608 224.733L150.736 224.254C151.342 225.958 152.835 226.841 154.562 226.553C157.017 226.143 158.272 224.129 157.81 221.361C157.336 218.61 155.361 217.134 152.727 217.574C150.628 217.924 149.319 219.519 149.356 221.67L148.116 221.571C148.086 218.914 149.804 216.929 152.543 216.472Z" fill="white"/>
<path d="M141.754 217.919L143.006 217.942L142.813 228.578L141.561 228.555L141.643 224.014L135.759 223.907L135.677 228.448L134.425 228.426L134.618 217.79L135.87 217.812L135.78 222.791L141.663 222.898L141.754 217.919Z" fill="white"/>
<path d="M117.012 214.015C120.312 215.041 121.801 217.874 120.784 221.145C119.763 224.43 116.93 225.919 113.63 224.894C110.316 223.863 108.827 221.03 109.848 217.745C110.865 214.474 113.699 212.985 117.012 214.015ZM116.681 215.081C114.102 214.28 111.874 215.499 111.059 218.121C110.239 220.758 111.383 223.025 113.962 223.827C116.541 224.629 118.769 223.41 119.588 220.773C120.404 218.151 119.26 215.883 116.681 215.081Z" fill="white"/>
<path d="M103.825 208.546C106.09 209.751 106.799 212.145 105.587 214.422L102.461 220.297L101.356 219.709L104.481 213.834C105.317 212.262 104.953 210.41 103.301 209.531C101.662 208.66 99.9863 209.272 99.0862 210.964L95.9607 216.838L94.8417 216.243L97.9673 210.368C99.1792 208.091 101.574 207.348 103.825 208.546Z" fill="white"/>
<path d="M92.2508 201.533L93.2459 202.294L87.4646 209.859L90.2939 212.021L89.6159 212.908L82.9622 207.823L83.6402 206.936L86.4696 209.098L92.2508 201.533Z" fill="white"/>
<path d="M80.364 190.2L81.1308 191.19L72.7201 197.703L69.8008 193.933C68.452 192.191 68.4934 190.175 69.8892 189.094C71.1061 188.152 72.691 188.375 73.9019 189.593L75.9758 184.533L76.8535 185.667L74.8503 190.424L76.8088 192.953L80.364 190.2ZM72.8361 196.029L75.926 193.637L73.7735 190.857C72.8682 189.688 71.5984 189.354 70.6918 190.056C69.7851 190.758 69.7783 192.08 70.6836 193.25L72.8361 196.029Z" fill="white"/>
<path d="M69.6034 173.562L73.1321 180.093L63.773 185.149L60.3161 178.751L61.2985 178.22L64.1745 183.543L67.241 181.887L64.6519 177.094L65.6078 176.578L68.1969 181.37L71.5688 179.549L68.6211 174.092L69.6034 173.562Z" fill="white"/>
<path d="M67.6245 168.998L68.0669 170.266L56.6611 169.867L56.164 168.443L64.8555 161.063L65.2929 162.317L63.2035 164.069L64.8937 168.912L67.6245 168.998ZM57.5857 168.762L63.7202 168.938L62.2735 164.793L57.5758 168.733L57.5857 168.762Z" fill="white"/>
<path d="M63.4009 151.863C63.9384 155.276 62.0877 157.782 58.6596 158.322C55.2165 158.864 52.7062 157.182 52.1992 153.963C51.8401 151.682 52.9916 149.683 55.1672 148.852L55.6358 149.985C53.9263 150.575 53.0299 152.06 53.3022 153.789C53.6895 156.249 55.6924 157.522 58.4647 157.085C61.2198 156.636 62.7134 154.675 62.2979 152.036C61.9669 149.935 60.3837 148.611 58.2328 148.629L58.3431 147.389C61 147.384 62.969 149.12 63.4009 151.863Z" fill="white"/>
<path d="M62.0534 141.061L62.0191 142.313L51.3855 142.022L51.4198 140.77L55.9598 140.894L56.1206 135.012L51.5806 134.888L51.6148 133.636L62.2484 133.926L62.2142 135.178L57.2368 135.042L57.0759 140.925L62.0534 141.061Z" fill="white"/>
<path d="M66.1844 116.357C65.1283 119.647 62.2816 121.11 59.0203 120.063C55.7447 119.012 54.2815 116.165 55.3376 112.875C56.3982 109.571 59.245 108.108 62.5206 109.159C65.7819 110.206 67.2451 113.053 66.1844 116.357ZM65.1213 116.016C65.9468 113.444 64.748 111.205 62.1332 110.366C59.5041 109.522 57.2262 110.645 56.4007 113.216C55.5752 115.788 56.774 118.027 59.4031 118.871C62.0178 119.71 64.2958 118.587 65.1213 116.016Z" fill="white"/>
<path d="M71.7746 103.219C70.549 105.473 68.1486 106.16 65.882 104.927L60.0365 101.748L60.6349 100.648L66.4804 103.827C68.0445 104.677 69.8997 104.33 70.7937 102.686C71.6804 101.056 71.0835 99.374 69.4001 98.4585L63.5546 95.2792L64.1602 94.1658L70.0057 97.345C72.2723 98.5778 72.9929 100.979 71.7746 103.219Z" fill="white"/>
<path d="M78.8932 91.7103L78.1237 92.6983L70.6122 86.8479L68.4241 89.6573L67.5432 88.9712L72.6889 82.3644L73.5698 83.0505L71.3817 85.8599L78.8932 91.7103Z" fill="white"/>
<path d="M90.3338 79.9278L89.3366 80.6854L82.9011 72.2154L86.6976 69.3308C88.4516 67.998 90.4679 68.0579 91.5359 69.4635C92.467 70.689 92.2295 72.2718 90.9997 73.4715L96.0406 75.5918L94.8992 76.459L90.1605 74.4123L87.6135 76.3475L90.3338 79.9278ZM84.5738 72.3468L86.938 75.4585L89.7373 73.3315C90.9147 72.437 91.2599 71.1703 90.5661 70.2573C89.8724 69.3442 88.5505 69.3253 87.3731 70.2198L84.5738 72.3468Z" fill="white"/>
<path d="M107.072 69.3206L100.508 72.7892L95.5379 63.3842L101.968 59.9861L102.49 60.9733L97.1402 63.8003L98.7688 66.882L103.585 64.3369L104.092 65.2974L99.2764 67.8425L101.067 71.2309L106.55 68.3334L107.072 69.3206Z" fill="white"/>
<path d="M111.653 67.3833L110.381 67.8141L110.884 56.4125L112.313 55.9284L119.613 64.6872L118.355 65.1131L116.622 63.0077L111.763 64.6534L111.653 67.3833ZM111.981 57.3472L111.748 63.4797L115.907 62.0712L112.01 57.3375L111.981 57.3472Z" fill="white"/>
<path d="M128.826 63.3175C125.408 63.8237 122.919 61.9501 122.411 58.5171C121.9 55.0692 123.605 52.5745 126.829 52.097C129.113 51.7588 131.101 52.9287 131.912 55.1117L130.775 55.57C130.201 53.8551 128.724 52.9451 126.992 53.2015C124.53 53.5663 123.238 55.5574 123.649 58.3336C124.073 61.0927 126.021 62.6042 128.663 62.213C130.767 61.9013 132.106 60.3303 132.107 58.1793L133.346 58.301C133.327 60.9578 131.573 62.9107 128.826 63.3175Z" fill="white"/>
<path d="M139.64 62.0688L138.389 62.023L138.777 51.3926L140.028 51.4383L139.863 55.977L145.743 56.1917L145.909 51.653L147.161 51.6987L146.772 62.3292L145.521 62.2835L145.702 57.3075L139.822 57.0928L139.64 62.0688Z" fill="white"/>
<path d="M164.304 66.4261C161.024 65.3399 159.587 62.4799 160.664 59.2283C161.745 55.9625 164.605 54.5254 167.885 55.6116C171.18 56.7026 172.617 59.5627 171.535 62.8285C170.459 66.08 167.599 67.5171 164.304 66.4261ZM164.655 65.3662C167.219 66.2152 169.469 65.037 170.332 62.43C171.2 59.8088 170.098 57.5206 167.534 56.6716C164.97 55.8226 162.72 57.0008 161.852 59.622C160.989 62.229 162.091 64.5171 164.655 65.3662Z" fill="white"/>
<path d="M177.39 72.137C175.148 70.8908 174.484 68.4843 175.737 66.229L178.97 60.4129L180.064 61.0214L176.832 66.8375C175.967 68.3937 176.298 70.2521 177.933 71.1611C179.555 72.0627 181.242 71.4812 182.173 69.8063L185.406 63.9902L186.514 64.6059L183.281 70.422C182.027 72.6773 179.619 73.3759 177.39 72.137Z" fill="white"/>
<path d="M188.834 79.3601L187.853 78.5816L193.772 71.124L190.983 68.9103L191.677 68.0357L198.236 73.2418L197.542 74.1163L194.753 71.9026L188.834 79.3601Z" fill="white"/>
<path d="M200.511 90.9091L199.763 89.905L208.292 83.5474L211.141 87.3702C212.458 89.1365 212.379 91.1521 210.964 92.2072C209.73 93.127 208.15 92.8749 206.961 91.6342L204.795 96.6554L203.938 95.5062L206.028 90.7865L204.116 88.2218L200.511 90.9091ZM208.145 85.2188L205.012 87.5545L207.113 90.3732C207.996 91.5587 209.26 91.9155 210.179 91.2301C211.099 90.5448 211.13 89.2231 210.246 88.0376L208.145 85.2188Z" fill="white"/>
<path d="M210.964 107.742L207.556 101.147L217.006 96.2632L220.345 102.724L219.353 103.237L216.575 97.8616L213.479 99.4618L215.979 104.301L215.014 104.8L212.514 99.9606L209.109 101.72L211.956 107.229L210.964 107.742Z" fill="white"/>
<path d="M212.86 112.342L212.441 111.066L223.837 111.674L224.308 113.107L215.483 120.326L215.069 119.065L217.19 117.352L215.589 112.478L212.86 112.342ZM222.893 112.762L216.763 112.473L218.133 116.645L222.902 112.791L222.893 112.762Z" fill="white"/>
<path d="M216.768 129.551C216.293 126.129 218.19 123.657 221.627 123.18C225.08 122.701 227.559 124.429 228.006 127.657C228.324 129.943 227.136 131.921 224.945 132.712L224.497 131.571C226.217 131.013 227.141 129.544 226.9 127.81C226.558 125.344 224.579 124.035 221.799 124.42C219.036 124.819 217.507 126.752 217.874 129.398C218.166 131.505 219.725 132.858 221.876 132.879L221.743 134.116C219.086 134.074 217.15 132.301 216.768 129.551Z" fill="white"/>
<path d="M217.917 140.377L217.974 139.126L228.601 139.611L228.544 140.863L224.007 140.655L223.738 146.534L228.275 146.741L228.218 147.992L217.591 147.506L217.648 146.255L222.623 146.483L222.891 140.604L217.917 140.377Z" fill="white"/>
<path d="M213.334 165C214.45 161.73 217.323 160.319 220.564 161.426C223.82 162.537 225.231 165.41 224.115 168.68C222.994 171.964 220.121 173.375 216.865 172.264C213.623 171.157 212.212 168.284 213.334 165ZM214.39 165.361C213.518 167.917 214.675 170.177 217.274 171.064C219.887 171.956 222.186 170.875 223.058 168.319C223.931 165.763 222.773 163.503 220.16 162.611C217.561 161.724 215.263 162.805 214.39 165.361Z" fill="white"/>
<path d="M207.503 178.033C208.77 175.803 211.182 175.16 213.426 176.434L219.212 179.72L218.594 180.809L212.807 177.523C211.259 176.644 209.398 176.958 208.474 178.585C207.557 180.199 208.123 181.891 209.79 182.837L215.576 186.123L214.95 187.225L209.164 183.939C206.92 182.665 206.244 180.251 207.503 178.033Z" fill="white"/>
<path d="M200.175 189.41L200.963 188.436L208.366 194.423L210.605 191.654L211.473 192.356L206.207 198.868L205.339 198.166L207.578 195.397L200.175 189.41Z" fill="white"/>
<defs>
<filter id="filter0_d_1716_76" x="0" y="0" width="280" height="280" filterUnits="userSpaceOnUse" color-interpolation-filters="sRGB">
<feFlood flood-opacity="0" result="BackgroundImageFix"/>
<feColorMatrix in="SourceAlpha" type="matrix" values="0 0 0 0 0 0 0 0 0 0 0 0 0 0 0 0 0 0 127 0" result="hardAlpha"/>
<feOffset/>
<feGaussianBlur stdDeviation="20"/>
<feComposite in2="hardAlpha" operator="out"/>
<feColorMatrix type="matrix" values="0 0 0 0 0 0 0 0 0 0 0 0 0 0 0 0 0 0 1 0"/>
<feBlend mode="normal" in2="BackgroundImageFix" result="effect1_dropShadow_1716_76"/>
<feBlend mode="normal" in="SourceGraphic" in2="effect1_dropShadow_1716_76" result="shape"/>
</filter>
</defs>
</svg>
