<svg width="360" height="360" viewBox="0 0 360 360" fill="none" xmlns="http://www.w3.org/2000/svg">
<g filter="url(#filter0_d_1716_190)">
<circle cx="180" cy="180" r="100" fill="#5700EF"/>
</g>
<g clip-path="url(#clip0_1716_190)">
<rect x="178" y="149" width="4" height="62" fill="white"/>
<rect x="211" y="178" width="4" height="62" transform="rotate(90 211 178)" fill="white"/>
</g>
<path d="M163.227 258.377L169.197 259.379L167.605 268.859L166.489 268.672L167.914 260.187L163.06 259.372L163.227 258.377Z" fill="white"/>
<path d="M152.906 255.495L159.322 257.455L156.513 266.648L150.228 264.728L150.522 263.763L155.752 265.361L156.672 262.348L151.964 260.91L152.251 259.971L156.959 261.409L157.97 258.097L152.611 256.46L152.906 255.495Z" fill="white"/>
<path d="M148.764 253.877L149.863 254.391L142.409 261.518L141.173 260.941L141.883 250.662L142.97 251.17L142.785 253.627L146.985 255.589L148.764 253.877ZM142.277 260.222L146.262 256.365L142.667 254.685L142.252 260.21L142.277 260.222Z" fill="white"/>
<path d="M137.799 248.23L138.74 248.858L133.405 256.854L129.821 254.463C128.165 253.358 127.621 251.618 128.506 250.291C129.278 249.134 130.7 248.87 132.088 249.566L132.411 244.635L133.489 245.354L133.139 250.005L135.543 251.61L137.799 248.23ZM133.023 255.387L134.983 252.449L132.341 250.686C131.229 249.944 130.045 250.023 129.47 250.885C128.895 251.747 129.269 252.882 130.381 253.623L133.023 255.387Z" fill="white"/>
<path d="M127.858 240.989L128.691 241.755L122.187 248.833L121.073 247.809L122.965 238.475L122.945 238.456L117.428 244.46L116.585 243.685L123.089 236.607L124.203 237.631L122.33 246.965L122.35 246.983L127.858 240.989Z" fill="white"/>
<path d="M114.96 227.082L115.572 228.034L107.484 233.229L106.599 231.853L111.742 224.368L111.735 224.357L102.797 225.933L101.913 224.556L110.001 219.361L110.612 220.313L103.901 224.624L103.916 224.647L112.462 223.193L113.11 224.202L108.245 231.362L108.26 231.385L114.96 227.082Z" fill="white"/>
<path d="M106.267 210.488C107.449 213.379 106.33 216.046 103.465 217.217C100.587 218.393 97.9198 217.274 96.7382 214.384C95.5515 211.481 96.6707 208.814 99.5484 207.637C102.413 206.466 105.081 207.585 106.267 210.488ZM105.333 210.87C104.41 208.611 102.279 207.758 99.9818 208.698C97.6721 209.642 96.7486 211.743 97.6722 214.002C98.5957 216.261 100.727 217.114 103.036 216.169C105.333 215.23 106.257 213.129 105.333 210.87Z" fill="white"/>
<path d="M102.628 200.873L102.878 201.977L93.5023 204.101L92.5503 199.899C92.1104 197.957 92.9142 196.321 94.4701 195.969C95.8265 195.661 97.0395 196.449 97.5661 197.91L101.197 194.557L101.483 195.82L98.0259 198.952L98.6646 201.771L102.628 200.873ZM94.2363 202.774L97.6805 201.994L96.9786 198.895C96.6834 197.592 95.7707 196.834 94.76 197.063C93.7493 197.292 93.2391 198.373 93.5343 199.676L94.2363 202.774Z" fill="white"/>
<path d="M99.9938 183.203L100.52 189.891L90.9373 190.646L90.4213 184.094L91.4272 184.015L91.8565 189.465L94.9965 189.218L94.61 184.311L95.5888 184.234L95.9752 189.141L99.4279 188.869L98.9879 183.282L99.9938 183.203Z" fill="white"/>
<path d="M101.191 166.577L100.37 172.575L90.8462 171.272L90.9996 170.151L99.5241 171.317L100.191 166.44L101.191 166.577Z" fill="white"/>
<path d="M103.757 156.173L101.993 162.645L92.7184 160.118L94.4464 153.777L95.4199 154.042L93.9823 159.317L97.0212 160.145L98.3154 155.396L99.2626 155.654L97.9684 160.404L101.31 161.314L102.783 155.907L103.757 156.173Z" fill="white"/>
<path d="M105.248 151.984L104.768 153.098L97.4176 145.864L97.9571 144.612L108.253 145.009L107.778 146.111L105.317 146L103.483 150.258L105.248 151.984ZM98.7088 145.693L102.685 149.558L104.255 145.914L98.7196 145.668L98.7088 145.693Z" fill="white"/>
<path d="M110.56 140.851L109.96 141.812L101.805 136.722L104.087 133.067C105.141 131.378 106.863 130.781 108.216 131.626C109.396 132.362 109.704 133.776 109.05 135.184L113.989 135.357L113.303 136.456L108.643 136.248L107.112 138.7L110.56 140.851ZM103.261 136.296L106.256 138.166L107.939 135.471C108.646 134.337 108.531 133.156 107.652 132.608C106.773 132.059 105.65 132.467 104.943 133.601L103.261 136.296Z" fill="white"/>
<path d="M117.494 130.696L116.754 131.552L109.481 125.266L110.471 124.121L119.859 125.728L119.877 125.708L113.707 120.376L114.456 119.51L121.729 125.795L120.74 126.94L111.353 125.352L111.335 125.373L117.494 130.696Z" fill="white"/>
<path d="M131.002 117.381L130.069 118.021L124.63 110.095L125.98 109.169L133.617 114.082L133.628 114.074L131.781 105.188L133.13 104.262L138.569 112.189L137.636 112.829L133.123 106.252L133.1 106.267L134.814 114.765L133.824 115.444L126.519 110.799L126.497 110.815L131.002 117.381Z" fill="white"/>
<path d="M147.324 108.187C144.471 109.456 141.771 108.418 140.513 105.59C139.249 102.75 140.287 100.05 143.14 98.7809C146.006 97.5064 148.706 98.544 149.969 101.385C151.227 104.213 150.189 106.913 147.324 108.187ZM146.914 107.265C149.144 106.273 149.931 104.117 148.922 101.85C147.908 99.5701 145.78 98.711 143.55 99.7028C141.32 100.695 140.533 102.851 141.547 105.13C142.555 107.398 144.684 108.257 146.914 107.265Z" fill="white"/>
<path d="M156.824 104.256L155.728 104.54L153.32 95.2332L157.491 94.1538C159.418 93.6551 161.078 94.4087 161.478 95.9532C161.826 97.2996 161.076 98.536 159.632 99.1068L163.094 102.634L161.84 102.958L158.604 99.5981L155.806 100.322L156.824 104.256ZM154.668 95.9265L155.553 99.3455L158.629 98.5496C159.922 98.2148 160.652 97.2795 160.392 96.2763C160.133 95.273 159.038 94.7959 157.744 95.1307L154.668 95.9265Z" fill="white"/>
<path d="M174.406 101.085L167.737 101.815L166.691 92.2594L173.224 91.5443L173.334 92.5473L167.899 93.1422L168.241 96.2733L173.134 95.7377L173.241 96.7136L168.348 97.2492L168.725 100.692L174.296 100.082L174.406 101.085Z" fill="white"/>
<path d="M191.061 101.777L185.04 101.139L186.053 91.5798L187.178 91.6989L186.272 100.255L191.167 100.773L191.061 101.777Z" fill="white"/>
<path d="M201.539 104.025L195.015 102.459L197.26 93.1117L203.65 94.646L203.415 95.6271L198.098 94.3507L197.363 97.4134L202.149 98.5625L201.92 99.5171L197.133 98.368L196.325 101.736L201.774 103.044L201.539 104.025Z" fill="white"/>
<path d="M205.771 105.389L204.642 104.943L211.649 97.3753L212.918 97.8764L212.834 108.18L211.718 107.739L211.754 105.275L207.442 103.571L205.771 105.389ZM211.86 98.6607L208.117 102.753L211.807 104.211L211.885 98.6707L211.86 98.6607Z" fill="white"/>
<path d="M217.059 110.358L216.081 109.788L220.92 101.482L224.643 103.651C226.363 104.653 227.012 106.357 226.209 107.735C225.509 108.937 224.106 109.287 222.678 108.677L222.655 113.618L221.536 112.966L221.602 108.302L219.105 106.847L217.059 110.358ZM221.39 102.924L219.613 105.975L222.358 107.575C223.512 108.247 224.689 108.096 225.211 107.201C225.732 106.306 225.29 105.196 224.135 104.523L221.39 102.924Z" fill="white"/>
<path d="M227.421 116.981L226.543 116.267L232.604 108.806L233.779 109.761L232.458 119.193L232.479 119.21L237.62 112.882L238.509 113.604L232.448 121.065L231.273 120.11L232.575 110.68L232.554 110.663L227.421 116.981Z" fill="white"/>
<path d="M241.141 130.078L240.473 129.164L248.23 123.487L249.196 124.807L244.518 132.591L244.526 132.602L253.352 130.485L254.318 131.805L246.561 137.483L245.893 136.57L252.329 131.859L252.313 131.837L243.871 133.808L243.163 132.84L247.583 125.397L247.567 125.375L241.141 130.078Z" fill="white"/>
<path d="M250.827 146.112C249.472 143.299 250.427 140.569 253.215 139.226C256.016 137.876 258.746 138.831 260.101 141.644C261.463 144.47 260.508 147.2 257.707 148.549C254.918 149.893 252.188 148.938 250.827 146.112ZM251.736 145.674C252.795 147.873 254.974 148.595 257.21 147.517C259.458 146.435 260.252 144.281 259.192 142.082C258.133 139.884 255.954 139.162 253.706 140.245C251.471 141.322 250.677 143.476 251.736 145.674Z" fill="white"/>
<path d="M255.045 155.488L254.728 154.401L263.957 151.711L265.162 155.848C265.719 157.759 265.017 159.441 263.485 159.887C262.15 160.276 260.891 159.564 260.277 158.138L256.857 161.706L256.495 160.462L259.754 157.126L258.945 154.35L255.045 155.488ZM263.305 153.08L259.914 154.068L260.803 157.118C261.177 158.401 262.134 159.102 263.129 158.812C264.124 158.522 264.568 157.413 264.194 156.13L263.305 153.08Z" fill="white"/>
<path d="M258.749 172.965L257.817 166.322L267.337 164.985L268.25 171.494L267.251 171.634L266.491 166.219L263.372 166.657L264.056 171.532L263.084 171.668L262.399 166.794L258.97 167.275L259.749 172.825L258.749 172.965Z" fill="white"/>
<path d="M258.565 189.634L259.019 183.597L268.605 184.318L268.52 185.446L259.94 184.801L259.571 189.709L258.565 189.634Z" fill="white"/>
<path d="M256.636 200.175L258.003 193.607L267.414 195.566L266.075 202L265.087 201.794L266.201 196.441L263.118 195.8L262.115 200.619L261.154 200.419L262.156 195.6L258.766 194.894L257.624 200.38L256.636 200.175Z" fill="white"/>
<path d="M255.403 204.446L255.814 203.304L263.591 210.078L263.129 211.361L252.828 211.591L253.235 210.462L255.698 210.423L257.27 206.061L255.403 204.446ZM262.313 210.328L258.108 206.711L256.763 210.444L262.303 210.353L262.313 210.328Z" fill="white"/>
<path d="M250.779 215.881L251.319 214.886L259.768 219.47L257.714 223.258C256.764 225.007 255.081 225.708 253.679 224.947C252.457 224.284 252.064 222.892 252.631 221.446L247.691 221.574L248.308 220.435L252.972 220.359L254.351 217.819L250.779 215.881ZM258.342 219.984L255.238 218.3L253.723 221.092C253.085 222.267 253.272 223.438 254.183 223.933C255.094 224.427 256.189 223.951 256.827 222.776L258.342 219.984Z" fill="white"/>
<path d="M244.475 226.44L245.161 225.54L252.803 231.372L251.885 232.575L242.417 231.542L242.4 231.563L248.882 236.51L248.188 237.42L240.546 231.589L241.464 230.385L250.929 231.4L250.946 231.378L244.475 226.44Z" fill="white"/>
<path d="M231.801 240.552L232.694 239.856L238.605 247.437L237.314 248.443L229.392 244.004L229.381 244.012L231.766 252.769L230.475 253.775L224.564 246.194L225.457 245.498L230.362 251.789L230.383 251.772L228.156 243.394L229.102 242.656L236.676 246.848L236.698 246.832L231.801 240.552Z" fill="white"/>
<path d="M216.068 250.721C218.839 249.281 221.597 250.152 223.025 252.898C224.458 255.657 223.587 258.415 220.816 259.855C218.034 261.302 215.276 260.43 213.842 257.672C212.414 254.925 213.286 252.167 216.068 250.721ZM216.534 251.616C214.368 252.742 213.714 254.941 214.858 257.143C216.009 259.357 218.185 260.086 220.351 258.96C222.517 257.834 223.171 255.634 222.02 253.42C220.876 251.219 218.699 250.49 216.534 251.616Z" fill="white"/>
<path d="M206.825 255.222L207.902 254.873L210.871 264.015L206.773 265.346C204.88 265.961 203.178 265.31 202.685 263.793C202.255 262.47 202.929 261.19 204.335 260.533L200.665 257.223L201.897 256.823L205.331 259.98L208.081 259.087L206.825 255.222ZM209.483 263.405L208.392 260.046L205.371 261.028C204.1 261.441 203.428 262.419 203.748 263.404C204.069 264.39 205.191 264.8 206.462 264.387L209.483 263.405Z" fill="white"/>
<path d="M189.469 259.456L196.081 258.322L197.706 267.797L191.228 268.908L191.058 267.913L196.447 266.989L195.914 263.885L191.063 264.717L190.897 263.749L195.748 262.917L195.163 259.503L189.639 260.451L189.469 259.456Z" fill="white"/>
<defs>
<filter id="filter0_d_1716_190" x="0" y="0" width="360" height="360" filterUnits="userSpaceOnUse" color-interpolation-filters="sRGB">
<feFlood flood-opacity="0" result="BackgroundImageFix"/>
<feColorMatrix in="SourceAlpha" type="matrix" values="0 0 0 0 0 0 0 0 0 0 0 0 0 0 0 0 0 0 127 0" result="hardAlpha"/>
<feOffset/>
<feGaussianBlur stdDeviation="40"/>
<feComposite in2="hardAlpha" operator="out"/>
<feColorMatrix type="matrix" values="0 0 0 0 0 0 0 0 0 0 0 0 0 0 0 0 0 0 1 0"/>
<feBlend mode="normal" in2="BackgroundImageFix" result="effect1_dropShadow_1716_190"/>
<feBlend mode="normal" in="SourceGraphic" in2="effect1_dropShadow_1716_190" result="shape"/>
</filter>
<clipPath id="clip0_1716_190">
<rect width="62" height="62" fill="white" transform="translate(149 149)"/>
</clipPath>
</defs>
</svg>
