<svg width="52" height="52" viewBox="0 0 52 52" fill="none" xmlns="http://www.w3.org/2000/svg">
<circle cx="26" cy="26" r="25" stroke="#959595" stroke-width="2"/>
<g clip-path="url(#clip0_1716_551)">
<path d="M29.8965 27.1687C31.1627 30.383 32.1043 33.6948 32.7212 37.104C33.5979 36.5845 34.4096 35.9351 35.1563 35.1884C37.1044 33.2403 38.3382 30.8051 38.7928 28.1752C36.8772 27.396 34.7992 26.9414 32.6238 26.9414C31.7147 26.9414 30.8056 27.0063 29.8965 27.1687Z" fill="#959595"/>
<path d="M35.1885 16.844C35.1885 16.8115 35.1885 16.8115 35.1885 16.844C32.7209 14.3764 29.4741 13.0127 26 13.0127C24.6363 13.0127 23.3051 13.2075 22.0713 13.6296C24.0843 16.1621 25.8701 18.857 27.3636 21.6817C30.2208 20.4804 32.8508 18.8245 35.1885 16.844Z" fill="#959595"/>
<path d="M36.2277 17.9805C33.7601 20.0909 31.0327 21.7793 28.0781 23.0455C28.5002 23.9222 28.9223 24.8313 29.3119 25.7404C30.4158 25.5456 31.5198 25.4157 32.6562 25.4157C34.8315 25.4157 36.9744 25.8053 38.9875 26.5846C38.9875 26.3898 38.9875 26.1949 38.9875 26.0001C38.9875 23.0455 38.0134 20.2532 36.2277 17.9805Z" fill="#959595"/>
<path d="M18.0127 36.2271C20.2855 38.0129 23.0777 38.9869 25.9999 38.9869C27.8506 38.9869 29.6688 38.5973 31.3247 37.8505C30.7078 34.279 29.7013 30.8049 28.4025 27.4932C23.7921 28.7594 19.9933 32.0063 18.0127 36.2271Z" fill="#959595"/>
<path d="M25.7403 26.8118C26.4221 26.5196 27.1039 26.2923 27.7858 26.0975C27.4286 25.2533 27.039 24.4416 26.6169 23.6299C23.1103 24.9286 19.4089 25.578 15.6426 25.578C14.766 25.578 13.8893 25.5455 13.0127 25.4806V26.0001C13.0127 29.4742 14.3764 32.721 16.8115 35.1886C17.6557 33.5002 18.7596 31.9742 20.1233 30.6106C21.7467 28.9871 23.6623 27.6884 25.7403 26.8118Z" fill="#959595"/>
<path d="M25.9348 22.266C24.3764 19.4088 22.5906 16.7139 20.5451 14.2139C19.1814 14.8632 17.9152 15.7399 16.8113 16.8113C14.8307 18.7919 13.5969 21.2595 13.1748 23.9544C13.9865 24.0193 14.8307 24.0518 15.6424 24.0518C19.2464 24.0518 22.7205 23.4349 25.9348 22.266Z" fill="#959595"/>
</g>
<defs>
<clipPath id="clip0_1716_551">
<rect width="26" height="26" fill="white" transform="translate(13 13)"/>
</clipPath>
</defs>
</svg>
