<svg width="52" height="52" viewBox="0 0 52 52" fill="none" xmlns="http://www.w3.org/2000/svg">
<circle cx="26" cy="26" r="25" stroke="#959595" stroke-width="2"/>
<g clip-path="url(#clip0_1716_533)">
<path d="M38.9873 38.9877V29.4745C38.9873 24.7991 37.9808 21.2275 32.5261 21.2275C29.8962 21.2275 28.1429 22.6561 27.4286 24.0198H27.3636V21.6496H22.2012V38.9877H27.5909V30.3836C27.5909 28.1108 28.013 25.9354 30.8053 25.9354C33.5651 25.9354 33.5975 28.5004 33.5975 30.5135V38.9552H38.9873V38.9877Z" fill="#959595"/>
<path d="M13.4346 21.6494H18.8243V38.9875H13.4346V21.6494Z" fill="#959595"/>
<path d="M16.1297 13.0127C14.4088 13.0127 13.0127 14.4088 13.0127 16.1297C13.0127 17.8505 14.4088 19.2791 16.1297 19.2791C17.8505 19.2791 19.2466 17.8505 19.2466 16.1297C19.2466 14.4088 17.8505 13.0127 16.1297 13.0127Z" fill="#959595"/>
</g>
<defs>
<clipPath id="clip0_1716_533">
<rect width="26" height="26" fill="white" transform="translate(13 13)"/>
</clipPath>
</defs>
</svg>
